<?xml version="1.0" encoding="UTF-8" standalone="no"?>
<!DOCTYPE svg PUBLIC "-//W3C//DTD SVG 1.1//EN"
 "http://www.w3.org/Graphics/SVG/1.1/DTD/svg11.dtd">
<!-- Generated by graphviz version 5.0.0 (20220707.1540)
 -->
<!-- Title: UmlClassDiagram Pages: 1 -->
<svg width="418pt" height="794pt"
 viewBox="0.00 0.00 417.68 794.20" xmlns="http://www.w3.org/2000/svg" xmlns:xlink="http://www.w3.org/1999/xlink">
<g id="graph0" class="graph" transform="scale(1 1) rotate(0) translate(4 790.2)">
<title>UmlClassDiagram</title>
<polygon fill="white" stroke="transparent" points="-4,4 -4,-790.2 413.68,-790.2 413.68,4 -4,4"/>
<!-- 0 -->
<g id="node1" class="node">
<title>0</title>
<polygon fill="#f2f2f2" stroke="black" points="0,-0.5 0,-427.7 383.86,-427.7 383.86,-0.5 0,-0.5"/>
<text text-anchor="middle" x="191.93" y="-411.1" font-family="Times,serif" font-size="14.00">SmartDoor</text>
<text text-anchor="middle" x="191.93" y="-394.3" font-family="Times,serif" font-size="14.00">contract.sol</text>
<polyline fill="none" stroke="black" points="0,-386.1 383.86,-386.1 "/>
<text text-anchor="start" x="8" y="-369.5" font-family="Times,serif" font-size="14.00">Public:</text>
<text text-anchor="start" x="8" y="-352.7" font-family="Times,serif" font-size="14.00"> &#160;&#160;owner: address</text>
<text text-anchor="start" x="8" y="-335.9" font-family="Times,serif" font-size="14.00"> &#160;&#160;guests: address[]</text>
<text text-anchor="start" x="8" y="-319.1" font-family="Times,serif" font-size="14.00"> &#160;&#160;authorisations: mapping(address=&gt;Authorisation)</text>
<text text-anchor="start" x="8" y="-302.3" font-family="Times,serif" font-size="14.00"> &#160;&#160;accesses: mapping(address=&gt;Access[])</text>
<polyline fill="none" stroke="black" points="0,-294.1 383.86,-294.1 "/>
<text text-anchor="start" x="8" y="-277.5" font-family="Times,serif" font-size="14.00">Public:</text>
<text text-anchor="start" x="8" y="-260.7" font-family="Times,serif" font-size="14.00"> &#160;&#160;&#160;&lt;&lt;payable&gt;&gt; requestAuthorisation(name: string)</text>
<text text-anchor="start" x="8" y="-243.9" font-family="Times,serif" font-size="14.00"> &#160;&#160;&#160;&lt;&lt;payable&gt;&gt; accessDoor()</text>
<text text-anchor="start" x="8" y="-227.1" font-family="Times,serif" font-size="14.00"> &#160;&#160;&#160;&lt;&lt;payable&gt;&gt; createAuthorisation(name: string, guest: address)</text>
<text text-anchor="start" x="8" y="-210.3" font-family="Times,serif" font-size="14.00"> &#160;&#160;&#160;&lt;&lt;payable&gt;&gt; acceptAuthorisation(guest: address)</text>
<text text-anchor="start" x="8" y="-193.5" font-family="Times,serif" font-size="14.00"> &#160;&#160;&#160;&lt;&lt;payable&gt;&gt; rejectAuthorisation(guest: address)</text>
<text text-anchor="start" x="8" y="-176.7" font-family="Times,serif" font-size="14.00"> &#160;&#160;&#160;&lt;&lt;payable&gt;&gt; reset()</text>
<text text-anchor="start" x="8" y="-159.9" font-family="Times,serif" font-size="14.00"> &#160;&#160;&#160;&lt;&lt;event&gt;&gt; newAccess()</text>
<text text-anchor="start" x="8" y="-143.1" font-family="Times,serif" font-size="14.00"> &#160;&#160;&#160;&lt;&lt;event&gt;&gt; newReset()</text>
<text text-anchor="start" x="8" y="-126.3" font-family="Times,serif" font-size="14.00"> &#160;&#160;&#160;&lt;&lt;event&gt;&gt; updateGuest(guest: address, method: string)</text>
<text text-anchor="start" x="8" y="-109.5" font-family="Times,serif" font-size="14.00"> &#160;&#160;&#160;&lt;&lt;event&gt;&gt; updateOwner(method: string)</text>
<text text-anchor="start" x="8" y="-92.7" font-family="Times,serif" font-size="14.00"> &#160;&#160;&#160;constructor()</text>
<text text-anchor="start" x="8" y="-75.9" font-family="Times,serif" font-size="14.00"> &#160;&#160;&#160;getRole(): Role</text>
<text text-anchor="start" x="8" y="-59.1" font-family="Times,serif" font-size="14.00"> &#160;&#160;&#160;getAuthorisation(): Authorisation</text>
<text text-anchor="start" x="8" y="-42.3" font-family="Times,serif" font-size="14.00"> &#160;&#160;&#160;getAccesses(): Access[]</text>
<text text-anchor="start" x="8" y="-25.5" font-family="Times,serif" font-size="14.00"> &#160;&#160;&#160;getData(): Authorisation[]</text>
<text text-anchor="start" x="8" y="-8.7" font-family="Times,serif" font-size="14.00"> &#160;&#160;&#160;getAccesses(guest: address): Access[]</text>
</g>
<!-- 1 -->
<g id="node2" class="node">
<title>1</title>
<polygon fill="#f2f2f2" stroke="black" points="29.07,-481.5 29.07,-598.3 110.79,-598.3 110.79,-481.5 29.07,-481.5"/>
<text text-anchor="middle" x="69.93" y="-581.7" font-family="Times,serif" font-size="14.00">&lt;&lt;Enum&gt;&gt;</text>
<text text-anchor="middle" x="69.93" y="-564.9" font-family="Times,serif" font-size="14.00">Role</text>
<text text-anchor="middle" x="69.93" y="-548.1" font-family="Times,serif" font-size="14.00">contract.sol</text>
<polyline fill="none" stroke="black" points="29.07,-539.9 110.79,-539.9 "/>
<text text-anchor="start" x="37.07" y="-523.3" font-family="Times,serif" font-size="14.00">NULL: 0</text>
<text text-anchor="start" x="37.07" y="-506.5" font-family="Times,serif" font-size="14.00">OWNER: 1</text>
<text text-anchor="start" x="37.07" y="-489.7" font-family="Times,serif" font-size="14.00">GUEST: 2</text>
</g>
<!-- 0&#45;&gt;1 -->
<g id="edge6" class="edge">
<title>0&#45;&gt;1</title>
<path fill="none" stroke="black" stroke-dasharray="5,2" d="M105.3,-427.92C99.62,-443.5 94.3,-458.38 89.58,-471.9"/>
<polygon fill="black" stroke="black" points="86.23,-470.9 86.26,-481.5 92.84,-473.19 86.23,-470.9"/>
</g>
<!-- 2 -->
<g id="node3" class="node">
<title>2</title>
<polygon fill="#f2f2f2" stroke="black" points="96.57,-652.1 96.57,-785.7 199.29,-785.7 199.29,-652.1 96.57,-652.1"/>
<text text-anchor="middle" x="147.93" y="-769.1" font-family="Times,serif" font-size="14.00">&lt;&lt;Enum&gt;&gt;</text>
<text text-anchor="middle" x="147.93" y="-752.3" font-family="Times,serif" font-size="14.00">Status</text>
<text text-anchor="middle" x="147.93" y="-735.5" font-family="Times,serif" font-size="14.00">contract.sol</text>
<polyline fill="none" stroke="black" points="96.57,-727.3 199.29,-727.3 "/>
<text text-anchor="start" x="104.57" y="-710.7" font-family="Times,serif" font-size="14.00">NULL: 0</text>
<text text-anchor="start" x="104.57" y="-693.9" font-family="Times,serif" font-size="14.00">PENDING: 1</text>
<text text-anchor="start" x="104.57" y="-677.1" font-family="Times,serif" font-size="14.00">ACCEPTED: 2</text>
<text text-anchor="start" x="104.57" y="-660.3" font-family="Times,serif" font-size="14.00">REJECTED: 3</text>
</g>
<!-- 0&#45;&gt;2 -->
<g id="edge7" class="edge">
<title>0&#45;&gt;2</title>
<path fill="none" stroke="black" stroke-dasharray="5,2" d="M166.62,-427.97C159.69,-504.02 153.17,-584.89 149.58,-641.85"/>
<polygon fill="black" stroke="black" points="146.09,-641.64 148.97,-651.84 153.08,-642.07 146.09,-641.64"/>
</g>
<!-- 3 -->
<g id="node4" class="node">
<title>3</title>
<polygon fill="#f2f2f2" stroke="black" points="185.18,-464.7 185.18,-615.1 288.68,-615.1 288.68,-464.7 185.18,-464.7"/>
<text text-anchor="middle" x="236.93" y="-598.5" font-family="Times,serif" font-size="14.00">&lt;&lt;Struct&gt;&gt;</text>
<text text-anchor="middle" x="236.93" y="-581.7" font-family="Times,serif" font-size="14.00">Authorisation</text>
<text text-anchor="middle" x="236.93" y="-564.9" font-family="Times,serif" font-size="14.00">contract.sol</text>
<polyline fill="none" stroke="black" points="185.18,-556.7 288.68,-556.7 "/>
<text text-anchor="start" x="193.18" y="-540.1" font-family="Times,serif" font-size="14.00">timestamp: uint</text>
<text text-anchor="start" x="193.18" y="-523.3" font-family="Times,serif" font-size="14.00">guest: address</text>
<text text-anchor="start" x="193.18" y="-506.5" font-family="Times,serif" font-size="14.00">name: string</text>
<text text-anchor="start" x="193.18" y="-489.7" font-family="Times,serif" font-size="14.00">status: Status</text>
<text text-anchor="start" x="193.18" y="-472.9" font-family="Times,serif" font-size="14.00">exists: bool</text>
</g>
<!-- 0&#45;&gt;3 -->
<g id="edge5" class="edge">
<title>0&#45;&gt;3</title>
<path fill="none" stroke="black" d="M215.06,-427.92C216.46,-437.14 217.85,-446.12 219.23,-454.71"/>
<polygon fill="black" stroke="black" points="215.78,-455.3 220.83,-464.62 222.69,-454.19 215.78,-455.3"/>
</g>
<!-- 4 -->
<g id="node5" class="node">
<title>4</title>
<polygon fill="#f2f2f2" stroke="black" points="306.18,-489.9 306.18,-589.9 409.68,-589.9 409.68,-489.9 306.18,-489.9"/>
<text text-anchor="middle" x="357.93" y="-573.3" font-family="Times,serif" font-size="14.00">&lt;&lt;Struct&gt;&gt;</text>
<text text-anchor="middle" x="357.93" y="-556.5" font-family="Times,serif" font-size="14.00">Access</text>
<text text-anchor="middle" x="357.93" y="-539.7" font-family="Times,serif" font-size="14.00">contract.sol</text>
<polyline fill="none" stroke="black" points="306.18,-531.5 409.68,-531.5 "/>
<text text-anchor="start" x="314.18" y="-514.9" font-family="Times,serif" font-size="14.00">timestamp: uint</text>
<text text-anchor="start" x="314.18" y="-498.1" font-family="Times,serif" font-size="14.00">guest: address</text>
</g>
<!-- 0&#45;&gt;4 -->
<g id="edge8" class="edge">
<title>0&#45;&gt;4</title>
<path fill="none" stroke="black" stroke-dasharray="5,2" d="M294.59,-427.92C304.6,-446.99 314.21,-465.01 322.8,-480.76"/>
<polygon fill="black" stroke="black" points="319.86,-482.68 327.73,-489.77 326,-479.31 319.86,-482.68"/>
</g>
<!-- 1&#45;&gt;0 -->
<g id="edge1" class="edge">
<title>1&#45;&gt;0</title>
<path fill="none" stroke="black" d="M96.86,-481.5C102.11,-468.68 107.84,-454.34 113.81,-439.13"/>
<polygon fill="black" stroke="black" points="113.82,-439.1 112.28,-432.05 118.19,-427.92 119.73,-434.96 113.82,-439.1"/>
</g>
<!-- 2&#45;&gt;0 -->
<g id="edge2" class="edge">
<title>2&#45;&gt;0</title>
<path fill="none" stroke="black" d="M158.45,-651.84C164.72,-597.53 172.4,-517.25 178.94,-440.29"/>
<polygon fill="black" stroke="black" points="178.97,-439.93 175.49,-433.61 179.98,-427.97 183.46,-434.28 178.97,-439.93"/>
</g>
<!-- 3&#45;&gt;0 -->
<g id="edge3" class="edge">
<title>3&#45;&gt;0</title>
<path fill="none" stroke="black" d="M232.39,-464.62C231.49,-456.79 230.52,-448.58 229.47,-440.09"/>
<polygon fill="black" stroke="black" points="229.44,-439.83 224.73,-434.37 227.95,-427.92 232.66,-433.38 229.44,-439.83"/>
</g>
<!-- 3&#45;&gt;2 -->
<g id="edge9" class="edge">
<title>3&#45;&gt;2</title>
<path fill="none" stroke="black" stroke-dasharray="5,2" d="M199.57,-615.19C194.97,-624.35 190.26,-633.71 185.66,-642.87"/>
<polygon fill="black" stroke="black" points="182.45,-641.45 181.09,-651.96 188.71,-644.59 182.45,-641.45"/>
</g>
<!-- 4&#45;&gt;0 -->
<g id="edge4" class="edge">
<title>4&#45;&gt;0</title>
<path fill="none" stroke="black" d="M337.75,-489.77C330.68,-474.88 322.18,-457.46 312.88,-438.76"/>
<polygon fill="black" stroke="black" points="312.84,-438.66 306.58,-435.07 307.48,-427.92 313.74,-431.5 312.84,-438.66"/>
</g>
</g>
</svg>
